<svg width="54" height="59" viewBox="0 0 54 59" fill="none" xmlns="http://www.w3.org/2000/svg">
<path fill-rule="evenodd" clip-rule="evenodd" d="M26.3144 25.3948C27.129 25.3976 27.9246 25.6408 28.6006 26.0936C29.2766 26.5464 29.8027 27.1886 30.1124 27.939C30.4222 28.6893 30.5018 29.5143 30.3411 30.3097C30.1804 31.1051 29.7867 31.8352 29.2096 32.4079C28.6326 32.9806 27.898 33.3701 27.0988 33.5274C26.2996 33.6846 25.4715 33.6025 24.7191 33.2913C23.9667 32.9802 23.3238 32.454 22.8715 31.7792C22.4192 31.1045 22.1778 30.3113 22.1777 29.5C22.1777 28.4112 22.612 27.367 23.3851 26.5972C24.1582 25.8273 25.2067 25.3948 26.2999 25.3948H26.3144Z" fill="#B19ACE"/>
<path fill-rule="evenodd" clip-rule="evenodd" d="M19.9311 3.72113C20.6119 3.72113 21.2774 3.92219 21.8435 4.29889C22.4096 4.67559 22.8508 5.211 23.1114 5.83743C23.3719 6.46385 23.4401 7.15316 23.3073 7.81817C23.1745 8.48318 22.8466 9.09403 22.3652 9.57347C21.8837 10.0529 21.2704 10.3794 20.6026 10.5117C19.9349 10.644 19.2427 10.5761 18.6137 10.3166C17.9847 10.0571 17.4471 9.61774 17.0688 9.05397C16.6906 8.4902 16.4887 7.82739 16.4887 7.14935C16.49 6.24052 16.853 5.36928 17.4983 4.72664C18.1436 4.08399 19.0185 3.7224 19.9311 3.72113Z" fill="#5E3F83"/>
<path fill-rule="evenodd" clip-rule="evenodd" d="M9.61358 42.7664C10.2944 42.7664 10.96 42.9674 11.5261 43.3441C12.0922 43.7208 12.5334 44.2562 12.7939 44.8827C13.0545 45.5091 13.1226 46.1984 12.9898 46.8634C12.857 47.5284 12.5291 48.1393 12.0477 48.6187C11.5663 49.0981 10.9529 49.4247 10.2851 49.5569C9.61739 49.6892 8.92525 49.6213 8.29624 49.3618C7.66723 49.1024 7.1296 48.663 6.75135 48.0992C6.3731 47.5354 6.1712 46.8726 6.1712 46.1946C6.1712 45.2854 6.53388 44.4134 7.17945 43.7705C7.82502 43.1275 8.7006 42.7664 9.61358 42.7664Z" fill="#5E3F83"/>
<path fill-rule="evenodd" clip-rule="evenodd" d="M49.5576 32.8754C50.2394 32.8754 50.9059 33.0768 51.4728 33.454C52.0397 33.8312 52.4815 34.3674 52.7424 34.9947C53.0033 35.622 53.0716 36.3123 52.9386 36.9782C52.8056 37.6441 52.4773 38.2558 51.9952 38.736C51.5131 39.2161 50.8988 39.543 50.2301 39.6755C49.5614 39.808 48.8683 39.74 48.2384 39.4802C47.6085 39.2203 47.0702 38.7803 46.6914 38.2157C46.3126 37.6512 46.1104 36.9874 46.1104 36.3085C46.1104 35.398 46.4736 34.5248 47.1201 33.8809C47.7666 33.2371 48.6434 32.8754 49.5576 32.8754Z" fill="#5E3F83"/>
<path d="M52.3133 44.232C50.6437 47.1117 46.1591 47.8844 40.267 46.8381C38.8456 46.5892 37.4379 46.2688 36.0494 45.8782C35.705 47.2663 35.2886 48.636 34.802 49.9818C32.7733 55.554 29.8418 59 26.4929 59C23.144 59 20.2174 55.554 18.1838 49.9818C17.7275 48.7195 17.3101 47.3469 16.9413 45.8782C16.2133 46.0846 15.4852 46.267 14.8009 46.4302C14.8009 46.3534 14.8009 46.2766 14.8009 46.1998C14.8004 45.5863 14.6869 44.9781 14.466 44.4048C15.1212 44.2464 15.7862 44.0736 16.4705 43.8768C15.9259 41.2277 15.5482 38.5476 15.3396 35.8521C13.096 34.3269 10.9484 32.6681 8.9088 30.8846C7.8832 31.8478 6.91109 32.8652 5.99672 33.9323C2.71578 37.7719 1.27915 41.1699 2.46825 43.1953C2.98908 44.002 3.79849 44.5848 4.73482 44.8271C4.54939 45.4973 4.50316 46.1978 4.59892 46.8861C2.79343 46.4062 1.43932 45.5423 0.672471 44.232C-1.00197 41.3523 0.54628 37.1288 4.40964 32.6077C5.34626 31.5177 6.33932 30.4764 7.38481 29.488C6.33932 28.4996 5.34626 27.4583 4.40964 26.3683C0.526866 21.8472 -1.00197 17.6141 0.672471 14.744C2.34692 11.8739 6.82666 11.0916 12.7188 12.1379C14.1423 12.3947 15.5516 12.7231 16.9413 13.1218C17.082 12.5602 17.2325 12.0083 17.3878 11.4708C17.979 11.8336 18.6402 12.0706 19.3292 12.1667C19.1836 12.6754 19.0428 13.1986 18.9118 13.7313C21.4947 14.5878 24.0231 15.5976 26.4832 16.755C28.9433 15.5976 31.4716 14.5878 34.0546 13.7313C33.7243 12.3704 33.3209 11.0278 32.8461 9.70935C31.1182 4.98186 28.8662 2.05418 26.4832 2.05418C25.5125 2.05418 24.5418 2.56292 23.6099 3.49402C23.1101 3.01629 22.5173 2.644 21.8675 2.39974C23.2653 0.859107 24.8282 0 26.4929 0C29.8418 0 32.7733 3.44603 34.802 9.01822C35.2886 10.364 35.705 11.7337 36.0494 13.1218C37.4437 12.722 38.8579 12.3936 40.2864 12.1379C46.1785 11.0916 50.6631 11.8787 52.3327 14.744C54.0023 17.6093 52.4589 21.8472 48.5956 26.3683C47.6593 27.4571 46.668 28.4984 45.6252 29.488C46.3775 30.2367 47.0813 30.9566 47.7559 31.6766C47.2011 31.9304 46.6952 32.278 46.2611 32.7037L46.0766 32.8956C45.4602 32.2285 44.7953 31.5518 44.0818 30.8751C42.0398 32.6606 39.8907 34.3226 37.6462 35.8521C37.4334 38.5398 37.0525 41.2118 36.5056 43.8528C37.8648 44.2428 39.2434 44.5632 40.6359 44.8127C45.6398 45.7006 49.3284 45.2303 50.5224 43.1953C50.8445 42.6084 50.9846 41.9407 50.9252 41.2755C51.6252 41.1321 52.2868 40.8443 52.8666 40.4308C53.1506 41.736 52.9508 43.0987 52.3036 44.2704L52.3133 44.232ZM34.0643 45.2447C31.4833 44.3928 28.9565 43.3879 26.4977 42.2354C24.0398 43.3897 21.5129 44.3946 18.9312 45.2447C19.2653 46.6051 19.6703 47.9476 20.1446 49.2667C21.8675 53.9941 24.1244 56.9218 26.5026 56.9218C28.8808 56.9218 31.1377 53.9941 32.8655 49.2667C33.3403 47.9482 33.7437 46.6056 34.074 45.2447H34.0643ZM18.4459 43.2385C20.261 42.6386 22.149 41.9043 24.0904 41.0499C22.9871 40.49 21.8821 39.8933 20.7755 39.2597L20.7221 39.2261C19.6317 38.5862 18.572 37.9463 17.5431 37.3064C17.7615 39.3941 18.0673 41.3763 18.4459 43.2289V43.2385ZM35.433 37.316C34.3943 37.9783 33.3169 38.6262 32.2103 39.2357C31.1102 39.8757 30.01 40.4692 28.9099 41.0163C30.8513 41.8755 32.7393 42.605 34.5496 43.2049C34.9282 41.3523 35.234 39.3653 35.4524 37.2824L35.433 37.316ZM36.5153 15.1232C37.0622 17.7642 37.4431 20.4362 37.6559 23.1239C39.8968 24.6506 42.0427 26.3094 44.0818 28.0914C45.1049 27.1257 46.0769 26.1085 46.9939 25.0437C50.2749 21.2041 51.7066 17.8061 50.5224 15.7711C49.3381 13.7361 45.6252 13.2658 40.6359 14.1537C39.2434 14.4032 37.8648 14.7236 36.5056 15.1136L36.5153 15.1232ZM37.8257 25.754C37.884 26.9779 37.9131 28.2257 37.9131 29.488C37.9131 30.7503 37.884 31.9981 37.8257 33.222C39.5439 31.9933 41.1261 30.7407 42.5579 29.488C41.1018 28.2353 39.5439 26.9827 37.8257 25.754ZM15.1698 33.222C15.1115 31.9997 15.0824 30.7551 15.0824 29.488C15.0824 28.2257 15.1115 26.9779 15.1698 25.754C13.4565 26.9827 11.8694 28.2353 10.4425 29.488C11.8694 30.7407 13.4565 31.9933 15.1698 33.222ZM15.3396 23.1431C15.562 20.4488 15.951 17.7705 16.5045 15.1232C15.1471 14.7327 13.7701 14.4123 12.379 14.1633C7.3751 13.2754 3.68162 13.7457 2.49252 15.7807C1.30342 17.8157 2.74005 21.2137 6.01613 25.0533C6.93196 26.1191 7.90401 27.1364 8.92821 28.101C10.9613 26.3149 13.1024 24.6528 15.3396 23.1239V23.1431ZM18.4459 15.7375C18.0673 17.5901 17.7615 19.5771 17.5431 21.6601C18.5882 20.9977 19.6625 20.3498 20.7658 19.7163C21.8675 19.0875 22.9741 18.4924 24.0662 17.9357C22.1248 17.0765 20.2416 16.347 18.4264 15.7471L18.4459 15.7375ZM17.3393 24.2566C17.2228 25.9508 17.1597 27.6978 17.1597 29.488C17.1597 31.2782 17.2228 33.0252 17.3393 34.7194C18.7532 35.6569 20.2352 36.5704 21.785 37.4599L21.8384 37.4887C23.4012 38.3814 24.9527 39.2005 26.4929 39.9461C28.012 39.2069 29.5554 38.3958 31.0988 37.5175C31.1387 37.49 31.1809 37.4659 31.225 37.4455C32.7684 36.5624 34.2439 35.6537 35.6514 34.7194C35.763 33.0252 35.8261 31.2782 35.8261 29.488C35.8261 27.6978 35.763 25.9508 35.6514 24.2566C34.2406 23.3223 32.7571 22.4088 31.2008 21.5161L31.1474 21.4873C29.5894 20.5946 28.0314 19.7739 26.4977 19.0299C24.9738 19.7691 23.4368 20.5786 21.887 21.4585C21.8477 21.487 21.8054 21.5112 21.7608 21.5305C20.2222 22.4136 18.7419 23.3255 17.3393 24.2566ZM35.433 21.6601C35.2146 19.5723 34.9088 17.5901 34.5302 15.7375C32.7102 16.3182 30.8173 17.0717 28.8808 17.9261C29.9777 18.4876 31.0843 19.0827 32.1909 19.7163L32.2394 19.7499C33.3314 20.3738 34.3943 21.0121 35.4184 21.6696L35.433 21.6601Z" fill="#BEACD4" fill-opacity="0.65"/>
</svg>
