<svg width="24" height="24" viewBox="0 0 24 24" fill="none" xmlns="http://www.w3.org/2000/svg">
<path fill-rule="evenodd" clip-rule="evenodd" d="M15.6038 18.1724C15.8526 18.3051 19.3298 21.2807 19.5244 21.3257C21.2188 20.2001 22.9052 17.4716 23.4673 15.5456C23.5932 15.1141 23.7047 14.6794 23.7911 14.232C23.858 13.8857 23.9091 13.0153 24.0002 12.789V11.336C23.8895 11.0338 23.9264 10.1905 23.7794 9.78614C23.5118 9.70176 13.4711 9.75933 12.2643 9.75933L12.2463 14.5071H18.6442C18.6354 15.0199 17.7341 16.2408 17.4271 16.6302C16.7829 17.4473 16.2173 17.6993 15.604 18.1727L15.6038 18.1724Z" fill="#508DF6"/>
<path fill-rule="evenodd" clip-rule="evenodd" d="M1.32391 6.51441C1.53793 6.56583 5.01199 9.54783 5.25833 9.6658C5.9879 7.69078 7.37324 6.196 9.22745 5.42968C10.9031 4.73717 12.6518 4.67361 14.4067 5.28174C14.9684 5.47636 15.3315 5.73942 15.7855 5.93703L19.6316 2.76562C19.1006 2.1638 17.4932 1.30396 16.676 0.948317C15.8458 0.587001 14.792 0.285615 13.8689 0.145725C13.5378 0.0955729 13.0631 0.113552 12.786 0H11.3777C10.982 0.132162 9.74994 0.0753859 7.96308 0.697398C6.95862 1.04704 5.9551 1.57727 5.2044 2.11049C4.20924 2.81735 3.25635 3.67404 2.54728 4.6099C1.93867 5.41312 1.84121 5.61483 1.32391 6.51441Z" fill="#F04336"/>
<path fill-rule="evenodd" clip-rule="evenodd" d="M1.43188 17.6646C1.73532 18.4172 2.60037 19.4423 3.10331 20.0531C3.6023 20.659 4.57617 21.4478 5.23288 21.9081C6.4635 22.7708 7.88511 23.3753 9.41964 23.7185C9.7819 23.7996 10.9236 23.9093 11.1288 24H12.6229C12.7988 23.9391 13.416 23.9194 13.6742 23.8812C14.0275 23.829 14.3446 23.7754 14.6981 23.6937C15.9142 23.4127 17.0565 22.9553 18.1105 22.3289C18.4333 22.137 19.3575 21.5468 19.5243 21.3255C19.3297 21.2806 15.8527 18.3049 15.6038 18.1723C15.3822 18.256 15.1452 18.4142 14.9062 18.5154C11.4997 19.9601 7.92217 18.7962 5.9604 15.7888C5.51991 15.1136 5.51912 14.8622 5.3059 14.4951L1.43188 17.6644V17.6646Z" fill="#28B345"/>
<path fill-rule="evenodd" clip-rule="evenodd" d="M0 11.1293V12.8705C0.120964 13.148 0.138786 13.8618 0.208179 14.2329C0.287034 14.6539 0.390493 15.0729 0.512561 15.4732C0.668695 15.9854 1.18236 17.3826 1.43186 17.6646L5.30587 14.4952C5.21834 14.1211 5.08461 13.7958 5.00133 13.3763C4.91775 12.956 4.87438 12.5306 4.86854 12.0938C4.85671 11.1915 5.00338 10.4531 5.2584 9.66579C5.01206 9.54782 1.538 6.56582 1.32398 6.5144C0.985852 7.1626 0.706861 7.87908 0.478653 8.63483C0.361316 9.02359 0.265743 9.43931 0.192565 9.84857C0.127273 10.2141 0.125223 10.8404 0 11.1293H0Z" fill="#FABA00"/>
</svg>
